<svg id="svg" version="1.1" xmlns="http://www.w3.org/2000/svg" xmlns:xlink="http://www.w3.org/1999/xlink" width="400" height="400" viewBox="0, 0, 400,400"><g id="svgg"><path id="path0" d="M192.604 0.191 C 193.009 0.253,193.609 0.251,193.937 0.188 C 194.265 0.124,193.933 0.074,193.200 0.076 C 192.467 0.078,192.198 0.130,192.604 0.191 M206.071 0.193 C 206.551 0.253,207.271 0.251,207.671 0.191 C 208.072 0.130,207.680 0.081,206.800 0.083 C 205.920 0.084,205.592 0.134,206.071 0.193 M195.267 5.264 C 196.110 5.317,197.490 5.317,198.333 5.264 C 199.177 5.211,198.487 5.168,196.800 5.168 C 195.113 5.168,194.423 5.211,195.267 5.264 M201.544 5.264 C 202.466 5.317,203.906 5.316,204.744 5.263 C 205.581 5.211,204.827 5.168,203.067 5.168 C 201.307 5.169,200.621 5.212,201.544 5.264 M189.137 5.525 C 189.542 5.586,190.142 5.584,190.470 5.521 C 190.798 5.458,190.467 5.408,189.733 5.410 C 189.000 5.412,188.732 5.463,189.137 5.525 M209.400 5.524 C 209.803 5.585,210.463 5.585,210.867 5.524 C 211.270 5.463,210.940 5.413,210.133 5.413 C 209.327 5.413,208.997 5.463,209.400 5.524 M184.736 5.789 C 185.068 5.852,185.548 5.850,185.803 5.783 C 186.058 5.716,185.787 5.664,185.200 5.667 C 184.613 5.670,184.405 5.725,184.736 5.789 M214.067 5.788 C 214.397 5.852,214.937 5.852,215.267 5.788 C 215.597 5.725,215.327 5.673,214.667 5.673 C 214.007 5.673,213.737 5.725,214.067 5.788 M217.667 6.050 C 217.923 6.118,218.343 6.118,218.600 6.050 C 218.857 5.983,218.647 5.929,218.133 5.929 C 217.620 5.929,217.410 5.983,217.667 6.050 M192.467 8.193 C 192.943 8.252,193.723 8.252,194.200 8.193 C 194.677 8.134,194.287 8.085,193.333 8.085 C 192.380 8.085,191.990 8.134,192.467 8.193 M206.071 8.193 C 206.551 8.253,207.271 8.251,207.671 8.191 C 208.072 8.130,207.680 8.081,206.800 8.083 C 205.920 8.084,205.592 8.134,206.071 8.193 M187.136 8.455 C 187.468 8.519,187.948 8.517,188.203 8.450 C 188.458 8.383,188.187 8.331,187.600 8.334 C 187.013 8.337,186.805 8.391,187.136 8.455 M211.800 8.450 C 212.057 8.518,212.477 8.518,212.733 8.450 C 212.990 8.383,212.780 8.329,212.267 8.329 C 211.753 8.329,211.543 8.383,211.800 8.450 M215.867 85.746 C 209.372 86.959,201.983 90.886,197.888 95.302 C 197.123 96.127,196.976 95.943,199.696 97.578 L 201.887 98.894 203.315 98.143 C 213.378 92.849,223.768 105.914,216.177 114.317 L 215.228 115.367 216.049 117.617 C 216.500 118.854,216.903 119.998,216.944 120.158 C 216.996 120.363,217.553 120.375,218.842 120.197 C 229.044 118.787,241.455 123.049,249.475 130.716 C 252.323 133.438,251.988 133.518,253.296 129.803 C 261.620 106.155,240.390 81.165,215.867 85.746 M174.533 94.297 C 150.898 97.720,136.025 123.171,145.283 144.352 L 145.733 145.382 147.382 143.291 C 158.704 128.929,176.874 123.186,194.361 128.442 L 197.389 129.352 198.494 128.447 C 202.398 125.250,209.167 122.015,214.183 120.951 L 214.899 120.798 214.140 118.554 C 210.118 106.655,199.900 97.797,186.852 94.899 C 184.475 94.371,176.660 93.989,174.533 94.297 M223.670 94.733 C 226.227 97.456,226.351 102.133,223.867 102.133 C 222.474 102.133,220.267 98.470,220.267 96.159 C 220.267 94.414,222.495 93.481,223.670 94.733 M239.870 99.974 C 246.607 102.951,244.325 113.322,236.933 113.322 C 228.996 113.322,227.216 102.355,234.721 99.692 C 236.346 99.116,238.150 99.215,239.870 99.974 M187.683 100.544 C 189.288 102.039,187.090 108.267,184.957 108.267 C 182.973 108.267,182.471 106.742,183.451 103.694 C 184.587 100.161,186.080 99.050,187.683 100.544 M170.294 105.972 C 176.183 108.714,176.356 117.073,170.582 119.841 C 162.729 123.605,155.583 113.715,161.721 107.578 C 163.997 105.302,167.461 104.653,170.294 105.972 M205.750 111.733 C 209.092 112.855,209.967 114.227,208.364 115.830 C 206.767 117.427,200.533 115.082,200.533 112.885 C 200.533 110.950,202.272 110.566,205.750 111.733 M193.469 112.384 C 195.300 113.149,196.035 115.732,194.935 117.536 C 193.369 120.104,189.468 120.064,188.384 117.469 C 186.986 114.124,190.124 110.986,193.469 112.384 M218.667 122.296 C 212.859 123.013,207.248 125.107,202.209 128.440 C 199.351 130.330,199.344 130.144,202.333 131.740 C 224.082 143.353,231.600 172.878,217.979 193.188 C 216.540 195.334,216.459 195.201,219.387 195.517 C 247.325 198.532,268.278 168.255,255.871 142.800 C 249.255 129.227,233.384 120.480,218.667 122.296 M160.412 125.188 C 162.027 126.803,161.089 128.245,157.722 129.323 C 154.012 130.512,152.800 130.185,152.800 127.995 C 152.800 125.841,158.838 123.614,160.412 125.188 M216.480 128.007 C 218.152 129.565,215.807 135.200,213.487 135.200 C 211.240 135.200,210.897 133.389,212.528 130.144 C 213.910 127.395,215.121 126.741,216.480 128.007 M177.867 128.802 C 148.725 131.651,131.922 162.527,145.199 188.828 C 160.646 219.427,207.319 217.281,219.588 185.409 C 230.814 156.247,208.386 125.817,177.867 128.802 M234.376 130.372 C 242.836 133.005,245.293 143.049,239.072 149.572 C 234.824 154.025,227.930 154.202,223.233 149.979 C 214.162 141.824,222.730 126.747,234.376 130.372 M191.321 133.232 C 193.545 134.086,192.638 136.390,189.465 137.946 C 185.781 139.753,184.666 139.751,183.976 137.937 C 183.227 135.968,188.930 132.315,191.321 133.232 M165.749 140.124 C 166.597 140.973,168.533 145.081,168.533 146.033 C 168.533 147.552,166.738 148.485,165.298 147.715 C 164.668 147.377,162.133 142.330,162.133 141.412 C 162.133 139.724,164.504 138.880,165.749 140.124 M200.440 144.360 C 203.465 147.384,203.747 148.032,202.647 149.431 C 201.485 150.908,200.475 150.513,197.384 147.372 C 194.345 144.284,194.042 143.533,195.321 142.255 C 196.609 140.967,197.354 141.274,200.440 144.360 M181.733 144.502 C 183.009 145.238,183.774 146.806,183.657 148.447 C 183.267 153.935,175.200 153.619,175.200 148.116 C 175.200 144.763,178.766 142.790,181.733 144.502 M248.287 151.713 C 249.639 153.065,249.384 153.865,246.975 155.823 C 243.933 158.295,242.829 158.549,241.760 157.024 C 240.795 155.646,242.038 153.766,245.267 151.718 C 246.816 150.736,247.309 150.735,248.287 151.713 M161.381 157.559 C 169.655 161.564,167.012 173.918,157.867 173.985 C 147.979 174.058,145.904 160.280,155.333 157.157 C 156.875 156.646,159.913 156.848,161.381 157.559 M191.575 159.533 C 192.610 160.458,192.701 161.359,191.861 162.358 L 191.153 163.200 187.102 163.200 C 182.676 163.200,182.084 163.034,181.748 161.699 C 181.520 160.789,182.003 159.613,182.752 159.250 C 184.004 158.645,190.826 158.864,191.575 159.533 M205.127 159.212 C 207.681 159.921,209.645 162.538,209.670 165.266 C 209.734 172.133,200.633 174.396,197.533 168.284 C 194.998 163.285,199.675 157.698,205.127 159.212 M178.687 163.979 C 180.460 165.752,179.515 172.000,177.474 172.000 C 176.815 172.000,175.552 171.274,175.366 170.788 C 175.048 169.961,175.184 164.656,175.533 164.217 C 176.484 163.026,177.646 162.939,178.687 163.979 M243.467 164.577 C 248.317 166.668,249.550 173.680,245.666 177.090 C 240.537 181.594,232.722 178.199,232.722 171.467 C 232.722 165.872,238.250 162.327,243.467 164.577 M185.978 179.188 C 197.491 183.184,197.163 200.154,185.505 203.709 C 174.417 207.091,165.130 195.950,170.193 185.341 C 172.830 179.816,179.876 177.070,185.978 179.188 M163.018 180.844 C 164.620 181.697,164.610 182.525,162.957 185.819 C 161.167 189.387,159.934 190.107,158.489 188.427 C 157.605 187.399,157.698 186.786,159.191 183.802 C 160.738 180.713,161.568 180.071,163.018 180.844 M208.757 180.960 C 209.965 181.806,210.015 183.556,208.856 184.436 C 208.104 185.008,202.611 184.926,201.897 184.333 C 200.909 183.513,200.875 182.284,201.815 181.344 C 202.798 180.361,207.528 180.099,208.757 180.960 M227.303 182.479 C 228.514 183.690,228.428 189.476,227.189 190.139 C 225.052 191.283,223.894 189.920,223.777 186.124 C 223.655 182.210,225.317 180.493,227.303 182.479 M5.667 185.467 C 5.670 186.053,5.725 186.262,5.789 185.930 C 5.852 185.599,5.850 185.119,5.783 184.864 C 5.716 184.609,5.664 184.880,5.667 185.467 M394.201 185.733 C 394.204 186.320,394.258 186.529,394.322 186.197 C 394.386 185.865,394.383 185.385,394.317 185.130 C 394.250 184.875,394.198 185.147,394.201 185.733 M399.534 187.333 C 399.537 187.920,399.591 188.129,399.655 187.797 C 399.719 187.465,399.717 186.985,399.650 186.730 C 399.583 186.475,399.531 186.747,399.534 187.333 M0.339 187.733 C 0.339 188.393,0.391 188.663,0.455 188.333 C 0.518 188.003,0.518 187.463,0.455 187.133 C 0.391 186.803,0.339 187.073,0.339 187.733 M8.329 187.733 C 8.329 188.247,8.383 188.457,8.450 188.200 C 8.518 187.943,8.518 187.523,8.450 187.267 C 8.383 187.010,8.329 187.220,8.329 187.733 M391.534 188.133 C 391.537 188.720,391.591 188.929,391.655 188.597 C 391.719 188.265,391.717 187.785,391.650 187.530 C 391.583 187.275,391.531 187.547,391.534 188.133 M5.413 189.867 C 5.413 190.673,5.463 191.003,5.524 190.600 C 5.585 190.197,5.585 189.537,5.524 189.133 C 5.463 188.730,5.413 189.060,5.413 189.867 M394.485 190.400 C 394.485 191.353,394.534 191.743,394.593 191.267 C 394.652 190.790,394.652 190.010,394.593 189.533 C 394.534 189.057,394.485 189.447,394.485 190.400 M204.716 189.913 C 205.683 190.822,205.656 196.235,204.679 197.212 C 202.654 199.237,201.067 197.532,201.067 193.334 C 201.067 189.638,202.747 188.063,204.716 189.913 M399.816 192.933 C 399.817 193.813,399.867 194.141,399.927 193.662 C 399.986 193.183,399.985 192.463,399.924 192.062 C 399.863 191.661,399.814 192.053,399.816 192.933 M0.083 193.200 C 0.084 194.080,0.134 194.408,0.193 193.929 C 0.253 193.449,0.251 192.729,0.191 192.329 C 0.130 191.928,0.081 192.320,0.083 193.200 M8.080 193.067 C 8.080 193.873,8.130 194.203,8.191 193.800 C 8.252 193.397,8.252 192.737,8.191 192.333 C 8.130 191.930,8.080 192.260,8.080 193.067 M391.819 194.133 C 391.819 195.087,391.867 195.477,391.926 195.000 C 391.985 194.523,391.985 193.743,391.926 193.267 C 391.867 192.790,391.819 193.180,391.819 194.133 M5.181 200.133 C 5.181 203.507,5.219 204.850,5.266 203.118 C 5.312 201.387,5.312 198.627,5.266 196.985 C 5.219 195.343,5.181 196.760,5.181 200.133 M394.778 200.000 C 394.778 202.860,394.818 204.030,394.865 202.600 C 394.913 201.170,394.913 198.830,394.865 197.400 C 394.818 195.970,394.778 197.140,394.778 200.000 M391.821 205.733 C 391.822 206.760,391.870 207.147,391.928 206.594 C 391.986 206.041,391.985 205.201,391.926 204.727 C 391.867 204.254,391.820 204.707,391.821 205.733 M0.083 206.800 C 0.084 207.680,0.134 208.008,0.193 207.529 C 0.253 207.049,0.251 206.329,0.191 205.929 C 0.130 205.528,0.081 205.920,0.083 206.800 M8.080 206.933 C 8.080 207.740,8.130 208.070,8.191 207.667 C 8.252 207.263,8.252 206.603,8.191 206.200 C 8.130 205.797,8.080 206.127,8.080 206.933 M399.816 207.333 C 399.817 208.213,399.867 208.541,399.927 208.062 C 399.986 207.583,399.985 206.863,399.924 206.462 C 399.863 206.061,399.814 206.453,399.816 207.333 M394.485 209.600 C 394.485 210.553,394.534 210.943,394.593 210.467 C 394.652 209.990,394.652 209.210,394.593 208.733 C 394.534 208.257,394.485 208.647,394.485 209.600 M5.413 210.133 C 5.413 210.940,5.463 211.270,5.524 210.867 C 5.585 210.463,5.585 209.803,5.524 209.400 C 5.463 208.997,5.413 209.327,5.413 210.133 M391.534 211.867 C 391.537 212.453,391.591 212.662,391.655 212.330 C 391.719 211.999,391.717 211.519,391.650 211.264 C 391.583 211.009,391.531 211.280,391.534 211.867 M0.339 212.267 C 0.339 212.927,0.391 213.197,0.455 212.867 C 0.518 212.537,0.518 211.997,0.455 211.667 C 0.391 211.337,0.339 211.607,0.339 212.267 M8.329 212.267 C 8.329 212.780,8.383 212.990,8.450 212.733 C 8.518 212.477,8.518 212.057,8.450 211.800 C 8.383 211.543,8.329 211.753,8.329 212.267 M399.539 212.800 C 399.539 213.460,399.591 213.730,399.655 213.400 C 399.718 213.070,399.718 212.530,399.655 212.200 C 399.591 211.870,399.539 212.140,399.539 212.800 M394.206 214.133 C 394.206 214.793,394.258 215.063,394.322 214.733 C 394.385 214.403,394.385 213.863,394.322 213.533 C 394.258 213.203,394.206 213.473,394.206 214.133 M5.667 214.533 C 5.670 215.120,5.725 215.329,5.789 214.997 C 5.852 214.665,5.850 214.185,5.783 213.930 C 5.716 213.675,5.664 213.947,5.667 214.533 M391.262 215.467 C 391.262 215.980,391.317 216.190,391.384 215.933 C 391.451 215.677,391.451 215.257,391.384 215.000 C 391.317 214.743,391.262 214.953,391.262 215.467 M0.595 216.267 C 0.595 216.780,0.650 216.990,0.717 216.733 C 0.784 216.477,0.784 216.057,0.717 215.800 C 0.650 215.543,0.595 215.753,0.595 216.267 M393.929 217.600 C 393.929 218.113,393.983 218.323,394.050 218.067 C 394.118 217.810,394.118 217.390,394.050 217.133 C 393.983 216.877,393.929 217.087,393.929 217.600 M5.929 217.867 C 5.929 218.380,5.983 218.590,6.050 218.333 C 6.118 218.077,6.118 217.657,6.050 217.400 C 5.983 217.143,5.929 217.353,5.929 217.867 M122.800 224.273 C 118.038 225.228,114.677 228.524,113.541 233.350 C 113.051 235.432,113.050 268.828,113.539 270.908 C 115.052 277.333,119.638 280.492,127.041 280.208 C 133.780 279.950,137.748 276.651,138.951 270.306 C 139.398 267.950,139.260 235.353,138.794 233.380 C 137.144 226.378,130.672 222.693,122.800 224.273 M153.704 224.397 C 149.647 225.279,146.807 227.797,145.276 231.867 C 144.473 234.003,144.169 268.005,144.926 271.019 C 146.560 277.519,150.978 280.525,158.433 280.207 C 165.506 279.906,169.472 276.295,170.400 269.311 C 170.902 265.529,170.619 234.664,170.065 232.835 C 167.972 225.926,161.654 222.667,153.704 224.397 M86.732 252.200 L 86.800 279.600 91.067 279.600 L 95.333 279.600 95.403 267.667 L 95.472 255.733 100.936 255.733 L 106.400 255.733 106.400 251.733 L 106.400 247.733 100.933 247.733 L 95.467 247.733 95.467 240.133 L 95.467 232.533 102.533 232.533 L 109.600 232.533 109.600 228.667 L 109.600 224.800 98.132 224.800 L 86.664 224.800 86.732 252.200 M176.533 252.298 L 176.533 279.796 184.333 279.651 C 195.533 279.443,198.059 278.608,200.506 274.306 C 202.304 271.146,202.267 271.619,202.267 252.000 L 202.267 234.267 201.564 232.344 C 199.273 226.078,196.335 224.800,184.224 224.800 L 176.533 224.800 176.533 252.298 M220.865 252.200 L 220.933 279.600 231.600 279.674 C 245.022 279.768,243.467 280.302,243.467 275.595 L 243.467 271.733 236.400 271.733 L 229.333 271.733 229.333 248.267 L 229.333 224.800 225.065 224.800 L 220.797 224.800 220.865 252.200 M247.799 252.200 L 247.867 279.600 251.467 279.677 C 253.447 279.719,255.337 279.687,255.667 279.605 L 256.267 279.457 256.267 252.128 L 256.267 224.800 251.999 224.800 L 247.731 224.800 247.799 252.200 M262.732 252.200 L 262.800 279.600 266.913 279.674 C 270.025 279.730,271.079 279.665,271.242 279.407 C 271.361 279.220,271.460 273.817,271.463 267.400 L 271.467 255.733 276.933 255.733 L 282.400 255.733 282.400 251.733 L 282.400 247.733 276.933 247.733 L 271.467 247.733 271.467 240.133 L 271.467 232.533 278.533 232.533 L 285.600 232.533 285.600 228.667 L 285.600 224.800 274.132 224.800 L 262.664 224.800 262.732 252.200 M289.665 252.200 L 289.733 279.600 301.333 279.600 L 312.933 279.600 313.007 275.667 L 313.081 271.733 305.740 271.733 L 298.400 271.733 298.400 263.333 L 298.400 254.933 304.267 254.933 L 310.133 254.933 310.133 251.072 L 310.133 247.210 304.333 247.139 L 298.533 247.067 298.462 239.800 L 298.391 232.533 305.729 232.533 L 313.067 232.533 313.067 228.667 L 313.067 224.800 301.332 224.800 L 289.597 224.800 289.665 252.200 M128.800 232.505 C 130.612 233.822,130.533 232.927,130.533 252.133 C 130.533 268.987,130.519 269.492,130.000 270.372 C 128.282 273.289,123.958 273.300,122.467 270.390 L 121.867 269.220 121.867 252.202 C 121.867 233.931,121.854 234.111,123.229 232.830 C 124.480 231.665,127.409 231.494,128.800 232.505 M159.958 232.378 C 161.936 233.401,161.913 233.177,161.933 252.106 L 161.951 269.010 161.309 270.287 C 159.794 273.300,155.487 273.349,153.733 270.372 C 153.109 269.312,152.745 237.119,153.333 234.936 C 154.084 232.144,157.189 230.946,159.958 232.378 M191.590 233.077 C 193.875 234.204,193.930 234.712,193.819 253.867 C 193.712 272.338,193.975 271.517,188.115 271.690 L 185.067 271.779 185.067 252.127 L 185.067 232.474 187.933 232.581 C 189.708 232.646,191.101 232.835,191.590 233.077 M136.254 293.948 C 135.091 294.339,133.968 295.123,134.215 295.371 C 134.315 295.471,134.704 295.414,135.078 295.243 C 136.896 294.415,138.675 295.250,139.688 297.406 C 140.746 299.659,140.749 299.650,138.931 299.518 C 136.174 299.319,134.356 301.079,133.976 304.314 C 133.059 312.132,142.691 313.291,143.814 305.498 C 144.853 298.284,140.974 292.358,136.254 293.948 M231.865 293.969 C 231.404 294.305,231.391 294.430,231.717 295.418 C 232.353 297.343,231.545 302.150,229.970 305.819 L 229.549 306.800 227.858 301.646 C 225.575 294.685,225.180 294.195,222.085 294.475 C 219.277 294.730,217.600 296.312,217.600 298.706 C 217.600 300.889,220.048 302.096,221.185 300.474 C 222.046 299.245,221.341 298.020,220.142 298.662 C 218.620 299.476,218.097 297.862,219.446 296.513 C 221.551 294.408,222.040 295.063,224.735 303.600 C 227.078 311.025,227.396 311.554,228.982 310.667 C 230.130 310.024,233.861 298.367,233.865 295.409 C 233.867 293.774,232.993 293.144,231.865 293.969 M243.135 293.948 C 241.987 294.315,240.789 295.241,241.260 295.398 C 241.431 295.455,241.809 295.373,242.101 295.217 C 244.033 294.183,246.352 295.777,247.138 298.681 L 247.395 299.629 245.826 299.515 C 243.081 299.317,241.287 301.117,240.892 304.467 C 240.086 311.292,248.463 313.370,250.447 306.838 C 252.590 299.782,248.338 292.286,243.135 293.948 M90.914 295.133 C 85.828 297.710,85.328 309.354,90.175 312.346 C 92.557 313.817,96.105 313.475,97.860 311.607 C 98.713 310.699,98.067 310.511,96.876 311.321 C 92.612 314.218,89.500 308.207,90.952 299.874 C 91.714 295.497,95.022 293.559,95.454 297.236 C 95.720 299.495,97.867 299.381,97.867 297.107 C 97.867 294.627,94.053 293.544,90.914 295.133 M164.292 294.748 C 160.685 296.013,160.884 299.841,164.778 304.116 C 166.999 306.553,167.734 307.832,167.732 309.256 C 167.729 312.602,164.189 313.286,163.272 310.118 C 162.704 308.159,161.440 307.738,160.932 309.339 C 159.939 312.467,165.301 314.543,168.910 312.428 C 172.488 310.331,172.204 306.735,168.114 302.362 C 165.225 299.273,164.480 297.489,165.482 296.059 C 166.350 294.819,167.777 295.361,168.133 297.067 C 168.585 299.228,170.400 299.144,170.400 296.961 C 170.400 294.949,167.114 293.759,164.292 294.748 M270.924 295.000 C 267.565 296.696,267.852 299.819,271.768 304.179 C 274.692 307.436,275.305 309.217,274.152 311.108 C 273.025 312.956,270.902 312.406,270.227 310.091 C 269.624 308.024,268.274 307.744,267.866 309.602 C 267.207 312.605,272.388 314.453,275.824 312.439 C 279.436 310.323,279.148 306.747,275.010 302.322 C 272.191 299.308,271.407 297.223,272.568 295.825 C 273.433 294.782,274.568 295.430,275.200 297.327 C 275.793 299.109,277.333 298.933,277.333 297.084 C 277.333 294.796,273.681 293.609,270.924 295.000 M129.266 295.532 C 127.885 295.995,127.982 297.736,129.417 298.248 C 130.929 298.787,132.359 297.133,131.348 296.016 C 130.762 295.368,130.168 295.230,129.266 295.532 M235.605 295.900 C 234.505 297.000,235.961 298.798,237.510 298.253 C 238.543 297.890,238.935 296.738,238.274 296.008 C 237.675 295.347,236.217 295.288,235.605 295.900 M102.800 299.399 C 101.425 299.627,101.049 299.782,100.249 300.456 C 95.464 304.482,100.340 313.320,105.640 310.225 C 110.543 307.361,108.220 298.503,102.800 299.399 M148.554 299.516 C 146.165 299.931,144.966 302.290,146.679 303.206 C 147.846 303.831,148.892 302.490,147.936 301.594 C 147.344 301.039,147.343 301.023,147.851 300.648 C 149.048 299.766,150.733 300.552,150.733 301.990 C 150.733 302.964,150.282 303.381,148.158 304.370 C 145.651 305.538,145.200 306.075,145.200 307.889 C 145.200 310.583,147.736 311.745,149.944 310.061 L 150.854 309.367 151.380 310.071 C 152.041 310.956,153.467 310.987,154.655 310.142 C 155.639 309.441,155.709 308.996,154.800 309.224 L 154.133 309.391 154.133 305.603 C 154.133 300.143,152.872 298.767,148.554 299.516 M199.467 299.474 C 196.918 299.913,195.588 302.266,197.354 303.211 C 198.575 303.865,199.601 302.530,198.600 301.592 C 197.600 300.654,199.393 299.781,200.787 300.526 C 202.423 301.402,201.565 303.152,198.916 304.343 C 195.850 305.722,194.949 307.560,196.333 309.609 C 197.322 311.071,199.725 311.202,200.940 309.859 L 201.432 309.315 202.014 310.044 C 202.736 310.950,204.178 311.036,205.248 310.237 C 206.221 309.511,206.316 309.106,205.477 309.266 L 204.800 309.396 204.800 305.644 C 204.800 300.192,203.568 298.766,199.467 299.474 M283.261 299.479 C 282.635 299.566,281.795 299.881,281.395 300.178 C 279.870 301.312,280.633 303.993,282.268 303.248 C 283.100 302.869,283.131 302.038,282.333 301.469 C 281.558 300.915,282.261 300.267,283.636 300.267 C 286.346 300.267,285.785 303.121,282.849 304.269 C 279.123 305.727,278.348 309.791,281.628 310.674 C 282.721 310.969,285.067 310.220,285.067 309.576 C 285.067 309.130,285.562 309.327,285.724 309.838 C 285.968 310.605,287.198 311.022,288.150 310.660 C 289.497 310.148,290.507 308.949,289.333 309.256 C 288.723 309.416,288.763 309.691,288.695 304.909 C 288.628 300.148,287.383 298.904,283.261 299.479 M109.733 299.993 L 108.933 300.530 109.633 300.532 C 110.561 300.534,110.667 301.122,110.667 306.307 L 110.667 310.413 111.352 310.674 C 112.103 310.959,113.354 310.753,113.663 310.292 C 113.770 310.132,113.860 308.238,113.863 306.085 L 113.867 302.170 114.676 301.593 C 116.147 300.546,116.267 300.839,116.267 305.476 C 116.267 310.018,116.397 310.536,117.609 310.802 C 119.473 311.211,119.733 310.642,119.733 306.147 L 119.733 302.172 120.449 301.609 C 121.865 300.495,121.986 300.774,122.133 305.470 C 122.207 307.815,122.368 309.891,122.493 310.083 C 123.192 311.166,125.239 310.969,126.427 309.704 L 127.067 309.023 126.333 309.207 L 125.600 309.391 125.600 305.535 C 125.600 299.451,124.364 298.020,121.040 300.256 L 119.867 301.045 119.247 300.256 C 118.254 298.990,115.943 299.242,114.563 300.767 L 114.061 301.322 113.630 300.461 C 113.074 299.347,111.057 299.105,109.733 299.993 M127.867 299.927 L 127.067 300.366 127.733 300.528 L 128.400 300.690 128.533 305.475 L 128.667 310.260 129.387 310.605 C 130.343 311.063,131.444 310.761,131.750 309.957 C 132.120 308.984,131.881 300.366,131.470 299.871 C 131.020 299.328,128.898 299.361,127.867 299.927 M174.639 300.076 C 172.932 301.223,173.487 304.005,175.286 303.315 C 176.052 303.021,176.128 302.101,175.431 301.555 C 174.805 301.064,174.804 301.057,175.333 300.651 C 176.759 299.559,178.842 300.914,178.258 302.554 C 177.974 303.350,177.968 303.354,175.432 304.519 C 173.387 305.457,172.756 306.247,172.756 307.867 C 172.756 310.710,175.389 311.758,177.790 309.870 C 178.516 309.299,178.523 309.298,178.760 309.828 C 179.119 310.633,180.266 311.022,181.217 310.660 C 182.564 310.148,183.574 308.949,182.400 309.256 C 181.782 309.418,181.818 309.655,181.839 305.600 C 181.858 302.006,181.556 300.924,180.294 300.076 C 178.990 299.199,175.943 299.199,174.639 300.076 M184.133 299.927 L 183.333 300.366 184.000 300.528 L 184.667 300.690 184.800 305.595 L 184.933 310.500 185.778 310.719 C 186.267 310.845,186.912 310.827,187.311 310.675 L 188.000 310.413 188.000 306.443 C 188.000 302.159,188.332 301.067,189.633 301.067 C 191.386 301.067,191.457 309.875,189.718 311.525 C 188.677 312.512,189.697 312.685,191.340 311.800 C 195.335 309.648,195.379 299.467,191.393 299.467 C 190.365 299.467,188.540 300.361,188.535 300.867 C 188.534 300.977,188.413 301.067,188.267 301.067 C 188.120 301.067,188.000 300.905,188.000 300.708 C 188.000 299.551,185.674 299.082,184.133 299.927 M234.800 299.927 L 234.000 300.366 234.667 300.528 L 235.333 300.690 235.406 305.410 C 235.478 310.080,235.486 310.133,236.129 310.555 C 237.051 311.159,238.349 310.834,238.705 309.909 C 239.122 308.827,238.895 300.463,238.434 299.907 C 237.953 299.328,235.871 299.339,234.800 299.927 M254.426 299.804 C 252.833 300.622,252.358 302.535,253.584 303.191 C 254.775 303.829,255.841 302.505,254.869 301.594 C 253.925 300.709,255.795 299.721,256.983 300.476 C 258.488 301.433,257.749 303.068,255.271 304.267 C 252.565 305.575,252.133 306.071,252.133 307.868 C 252.133 310.558,254.674 311.757,256.838 310.089 L 257.702 309.422 258.283 310.098 C 259.014 310.947,260.479 311.010,261.515 310.237 C 262.520 309.486,262.638 308.997,261.759 309.217 L 261.067 309.391 261.067 305.532 C 261.067 301.280,260.888 300.739,259.190 299.861 C 258.259 299.380,255.319 299.345,254.426 299.804 M291.067 299.927 L 290.267 300.366 290.933 300.528 L 291.600 300.690 291.733 305.602 L 291.867 310.514 292.667 310.743 C 293.157 310.883,293.750 310.864,294.200 310.692 L 294.933 310.413 294.933 306.443 C 294.933 302.159,295.265 301.067,296.566 301.067 C 298.371 301.067,298.396 309.798,296.596 311.598 C 295.295 312.899,297.516 312.526,299.040 311.187 C 301.644 308.902,302.105 301.599,299.759 299.808 C 298.924 299.171,297.166 299.396,296.174 300.267 C 295.162 301.155,294.933 301.236,294.933 300.708 C 294.933 299.551,292.608 299.082,291.067 299.927 M304.884 299.987 C 303.360 300.916,303.057 302.553,304.288 303.211 C 305.519 303.870,306.662 302.307,305.533 301.506 C 304.781 300.973,305.456 300.267,306.718 300.267 C 309.627 300.267,309.033 302.888,305.789 304.366 C 302.902 305.682,302.143 307.030,303.057 309.218 C 303.794 310.982,306.528 311.346,307.874 309.859 L 308.366 309.315 308.947 310.044 C 309.669 310.950,311.111 311.036,312.181 310.237 C 313.121 309.536,313.227 309.151,312.474 309.178 C 311.875 309.200,311.865 309.148,311.733 305.333 C 311.654 303.031,311.469 301.238,311.276 300.901 C 310.462 299.483,306.614 298.932,304.884 299.987 M104.525 301.467 C 105.064 302.558,105.059 307.548,104.517 308.667 C 103.583 310.595,102.228 309.733,101.815 306.949 C 101.129 302.326,103.039 298.461,104.525 301.467 M140.000 301.067 C 141.321 302.388,140.516 309.336,139.017 309.550 C 137.876 309.712,137.467 308.529,137.467 305.067 C 137.467 300.935,138.398 299.464,140.000 301.067 M247.092 301.201 C 247.714 302.150,247.694 306.887,247.062 308.467 C 245.655 311.984,243.538 307.190,244.506 302.678 C 244.990 300.421,246.148 299.760,247.092 301.201 M150.667 306.527 C 150.667 309.000,149.765 310.058,148.738 308.789 C 147.665 307.464,148.562 304.533,150.041 304.533 C 150.642 304.533,150.667 304.613,150.667 306.527 M178.345 306.455 C 178.465 309.176,176.819 310.473,176.086 308.235 C 175.491 306.418,176.402 304.399,177.731 304.590 C 178.197 304.657,178.277 304.899,178.345 306.455 M201.438 304.955 C 202.235 307.031,200.716 310.164,199.502 308.950 C 198.778 308.226,198.905 305.684,199.696 305.043 C 200.461 304.424,201.219 304.385,201.438 304.955 M257.600 306.527 C 257.600 309.000,256.698 310.058,255.671 308.789 C 254.598 307.464,255.495 304.533,256.975 304.533 C 257.575 304.533,257.600 304.613,257.600 306.527 M285.333 306.400 C 285.333 308.833,284.425 309.987,283.352 308.914 C 282.167 307.729,283.125 304.533,284.667 304.533 C 285.314 304.533,285.333 304.587,285.333 306.400 M308.479 306.333 C 308.597 308.796,307.087 310.242,306.204 308.512 C 305.388 306.913,306.317 304.427,307.673 304.583 C 308.368 304.663,308.403 304.740,308.479 306.333 M208.313 308.084 C 207.597 308.846,207.595 309.051,208.283 310.371 C 208.882 311.521,208.799 313.047,208.105 313.623 C 207.742 313.925,207.585 314.667,207.884 314.667 C 208.435 314.667,209.967 313.047,210.557 311.842 C 211.962 308.971,210.220 306.054,208.313 308.084 M187.670 391.655 C 188.001 391.719,188.481 391.717,188.736 391.650 C 188.991 391.583,188.720 391.531,188.133 391.534 C 187.547 391.537,187.338 391.591,187.670 391.655 M211.267 391.650 C 211.523 391.718,211.943 391.718,212.200 391.650 C 212.457 391.583,212.247 391.529,211.733 391.529 C 211.220 391.529,211.010 391.583,211.267 391.650 M193.933 391.928 C 194.483 391.985,195.383 391.985,195.933 391.928 C 196.483 391.870,196.033 391.823,194.933 391.823 C 193.833 391.823,193.383 391.870,193.933 391.928 M204.067 391.928 C 204.617 391.985,205.517 391.985,206.067 391.928 C 206.617 391.870,206.167 391.823,205.067 391.823 C 203.967 391.823,203.517 391.870,204.067 391.928 M181.933 394.050 C 182.190 394.118,182.610 394.118,182.867 394.050 C 183.123 393.983,182.913 393.929,182.400 393.929 C 181.887 393.929,181.677 393.983,181.933 394.050 M185.270 394.322 C 185.601 394.386,186.081 394.383,186.336 394.317 C 186.591 394.250,186.320 394.198,185.733 394.201 C 185.147 394.204,184.938 394.258,185.270 394.322 M213.803 394.322 C 214.135 394.386,214.615 394.383,214.870 394.317 C 215.125 394.250,214.853 394.198,214.267 394.201 C 213.680 394.204,213.471 394.258,213.803 394.322 M189.533 394.593 C 190.010 394.652,190.790 394.652,191.267 394.593 C 191.743 394.534,191.353 394.485,190.400 394.485 C 189.447 394.485,189.057 394.534,189.533 394.593 M208.867 394.591 C 209.270 394.652,209.930 394.652,210.333 394.591 C 210.737 394.530,210.407 394.480,209.600 394.480 C 208.793 394.480,208.463 394.530,208.867 394.591 M197.533 394.866 C 199.037 394.913,201.497 394.913,203.000 394.866 C 204.503 394.818,203.273 394.779,200.267 394.779 C 197.260 394.779,196.030 394.818,197.533 394.866 M183.000 399.384 C 183.257 399.451,183.677 399.451,183.933 399.384 C 184.190 399.317,183.980 399.262,183.467 399.262 C 182.953 399.262,182.743 399.317,183.000 399.384 M186.603 399.655 C 186.935 399.719,187.415 399.717,187.670 399.650 C 187.925 399.583,187.653 399.531,187.067 399.534 C 186.480 399.537,186.271 399.591,186.603 399.655 M212.200 399.655 C 212.530 399.718,213.070 399.718,213.400 399.655 C 213.730 399.591,213.460 399.539,212.800 399.539 C 212.140 399.539,211.870 399.591,212.200 399.655 M191.671 399.927 C 192.151 399.986,192.871 399.985,193.271 399.924 C 193.672 399.863,193.280 399.814,192.400 399.816 C 191.520 399.817,191.192 399.867,191.671 399.927 M206.733 399.924 C 207.137 399.985,207.797 399.985,208.200 399.924 C 208.603 399.863,208.273 399.813,207.467 399.813 C 206.660 399.813,206.330 399.863,206.733 399.924 " stroke="none" fill="#ebe3d2" fill-rule="evenodd"></path><path id="path1" d="M190.400 0.270 C 184.122 0.624,179.905 1.033,176.667 1.602 C 175.053 1.885,171.993 2.366,169.867 2.670 C 167.740 2.973,165.040 3.447,163.867 3.722 C 162.693 3.997,160.293 4.482,158.533 4.801 C 154.460 5.538,145.052 8.027,139.200 9.916 C 66.804 33.285,14.694 94.238,2.798 169.467 C 2.427 171.813,1.945 174.513,1.728 175.467 C -0.404 184.825,-0.404 212.698,1.729 224.000 C 2.075 225.833,2.494 228.293,2.661 229.467 C 6.137 253.982,15.376 279.975,28.301 301.600 C 34.058 311.234,37.514 316.224,44.087 324.400 C 58.941 342.874,78.498 360.020,97.333 371.081 C 98.873 371.985,100.793 373.114,101.600 373.589 C 112.585 380.059,130.542 387.722,143.118 391.307 C 150.510 393.415,155.032 394.617,156.267 394.804 C 156.927 394.903,158.847 395.327,160.533 395.745 C 162.220 396.163,164.620 396.635,165.867 396.793 C 167.113 396.951,169.273 397.317,170.667 397.606 C 181.468 399.847,203.743 400.608,217.333 399.200 C 224.321 398.477,227.260 398.074,228.933 397.610 C 229.960 397.326,231.915 396.965,233.279 396.807 C 234.642 396.649,237.222 396.177,239.012 395.758 C 240.802 395.338,242.747 394.915,243.333 394.815 C 246.200 394.331,258.650 390.862,263.333 389.242 C 273.478 385.734,279.332 383.292,288.667 378.672 C 344.107 351.235,384.409 298.261,396.095 237.467 C 396.461 235.560,397.070 232.380,397.447 230.400 C 401.126 211.082,400.677 184.264,396.326 163.467 C 395.881 161.340,395.325 158.580,395.091 157.333 C 393.141 146.975,386.625 127.960,380.571 114.961 C 366.707 85.191,342.585 56.336,315.987 37.702 C 315.334 37.245,314.260 36.488,313.600 36.021 C 312.441 35.201,308.921 32.865,305.333 30.534 C 304.380 29.915,302.460 28.767,301.067 27.983 C 299.673 27.200,298.113 26.274,297.600 25.925 C 297.087 25.577,293.187 23.568,288.933 21.460 C 269.095 11.630,249.536 5.523,227.888 2.401 C 224.819 1.958,221.868 1.477,221.329 1.332 C 218.172 0.482,198.582 -0.190,190.400 0.270 M214.000 5.599 C 334.896 14.262,418.897 130.893,388.778 248.267 C 386.420 257.453,384.374 263.707,380.795 272.667 C 349.082 352.046,268.201 401.692,182.933 394.116 C 69.816 384.066,-10.883 279.841,7.753 167.867 C 24.227 68.883,113.791 -1.582,214.000 5.599 M190.764 8.286 C 81.558 13.473,-1.628 109.539,8.935 218.267 C 19.563 327.660,119.325 405.794,228.000 389.837 C 328.814 375.035,400.595 283.541,391.057 182.000 C 381.470 79.944,293.236 3.418,190.764 8.286 M227.957 85.973 C 248.292 90.437,260.015 110.714,253.296 129.803 C 251.988 133.518,252.323 133.438,249.475 130.716 C 241.455 123.049,229.044 118.787,218.842 120.197 C 217.553 120.375,216.996 120.363,216.944 120.158 C 216.903 119.998,216.500 118.854,216.049 117.617 L 215.228 115.367 216.177 114.317 C 223.768 105.914,213.378 92.849,203.315 98.143 L 201.887 98.894 199.696 97.578 C 196.976 95.943,197.123 96.127,197.888 95.302 C 204.973 87.663,217.686 83.718,227.957 85.973 M186.852 94.899 C 199.900 97.797,210.118 106.655,214.140 118.554 L 214.899 120.798 214.183 120.951 C 209.167 122.015,202.398 125.250,198.494 128.447 L 197.389 129.352 194.361 128.442 C 176.874 123.186,158.704 128.929,147.382 143.291 L 145.733 145.382 145.283 144.352 C 136.025 123.171,150.898 97.720,174.533 94.297 C 176.660 93.989,184.475 94.371,186.852 94.899 M220.969 94.686 C 219.266 96.026,221.642 102.133,223.867 102.133 C 225.881 102.133,226.334 100.268,225.050 97.252 C 223.735 94.161,222.569 93.428,220.969 94.686 M234.721 99.692 C 227.216 102.355,228.996 113.322,236.933 113.322 C 243.177 113.322,246.252 105.760,241.813 101.321 C 240.000 99.508,237.110 98.844,234.721 99.692 M184.828 100.637 C 183.961 101.559,182.601 105.926,182.920 106.764 C 184.330 110.474,188.618 106.312,188.297 101.544 C 188.201 100.117,185.885 99.512,184.828 100.637 M164.274 105.796 C 160.436 107.151,158.333 112.355,160.095 116.139 C 163.598 123.660,174.747 121.226,174.776 112.933 C 174.794 107.544,169.505 103.950,164.274 105.796 M201.188 111.588 C 199.640 113.135,200.644 114.571,204.070 115.712 C 207.522 116.862,209.067 116.454,209.067 114.393 C 209.067 112.242,202.774 110.002,201.188 111.588 M190.139 112.467 C 186.654 114.218,187.750 119.465,191.600 119.465 C 193.672 119.465,195.465 117.672,195.465 115.600 C 195.465 112.851,192.659 111.201,190.139 112.467 M230.267 122.927 C 251.997 127.845,264.406 149.307,257.586 170.176 C 252.144 186.828,236.296 197.342,219.387 195.517 C 216.459 195.201,216.540 195.334,217.979 193.188 C 231.600 172.878,224.082 143.353,202.333 131.740 C 199.344 130.144,199.351 130.330,202.209 128.440 C 210.594 122.895,221.049 120.840,230.267 122.927 M156.026 125.349 C 152.713 126.495,151.774 128.009,153.417 129.554 C 155.020 131.059,161.067 128.721,161.067 126.595 C 161.067 124.565,159.449 124.164,156.026 125.349 M214.062 127.758 C 212.461 128.690,210.981 133.648,212.000 134.667 C 213.471 136.138,214.946 135.224,216.440 131.915 C 217.872 128.746,216.496 126.340,214.062 127.758 M189.102 129.356 C 214.632 133.908,229.143 160.587,219.588 185.409 C 207.319 217.281,160.646 219.427,145.199 188.828 C 129.679 158.085,155.331 123.336,189.102 129.356 M227.326 130.369 C 218.999 133.368,216.749 144.149,223.233 149.979 C 230.212 156.254,240.732 152.371,242.425 142.895 C 243.869 134.817,235.121 127.561,227.326 130.369 M186.906 134.396 C 183.525 136.116,182.841 137.721,184.911 139.077 C 186.235 139.944,191.959 137.263,192.382 135.578 C 193.037 132.965,190.708 132.462,186.906 134.396 M162.788 140.121 C 161.865 141.044,161.957 141.686,163.449 144.738 C 165.093 148.099,166.503 148.927,167.954 147.383 C 168.779 146.504,168.680 145.611,167.470 143.042 C 165.792 139.476,164.339 138.570,162.788 140.121 M195.321 142.255 C 194.042 143.533,194.345 144.284,197.384 147.372 C 200.475 150.513,201.485 150.908,202.647 149.431 C 203.747 148.032,203.465 147.384,200.440 144.360 C 197.354 141.274,196.609 140.967,195.321 142.255 M178.049 144.111 C 176.249 144.768,175.200 146.243,175.200 148.116 C 175.200 153.619,183.267 153.935,183.657 148.447 C 183.879 145.327,180.940 143.055,178.049 144.111 M245.267 151.718 C 241.291 154.239,240.246 156.896,242.842 157.883 C 243.831 158.259,248.391 155.316,248.909 153.968 C 249.756 151.759,247.450 150.334,245.267 151.718 M155.333 157.157 C 145.904 160.280,147.979 174.058,157.867 173.985 C 167.012 173.918,169.655 161.564,161.381 157.559 C 159.913 156.848,156.875 156.646,155.333 157.157 M182.752 159.250 C 182.003 159.613,181.520 160.789,181.748 161.699 C 182.084 163.034,182.676 163.200,187.102 163.200 L 191.153 163.200 191.861 162.358 C 192.701 161.359,192.610 160.458,191.575 159.533 C 190.826 158.864,184.004 158.645,182.752 159.250 M201.209 159.268 C 199.798 159.640,197.562 161.882,197.124 163.364 C 195.242 169.736,202.635 174.590,207.520 170.189 C 212.721 165.505,208.069 157.456,201.209 159.268 M176.400 163.508 C 175.338 164.089,175.200 164.547,175.200 167.496 C 175.200 170.811,175.273 171.086,176.286 171.610 C 178.418 172.713,179.467 171.391,179.467 167.600 C 179.467 163.935,178.348 162.442,176.400 163.508 M238.923 163.977 C 229.815 165.788,231.118 179.095,240.400 179.049 C 250.030 179.002,250.647 165.002,241.067 163.924 C 240.407 163.850,239.442 163.873,238.923 163.977 M178.593 178.800 C 163.881 182.534,166.447 204.267,181.600 204.267 C 198.176 204.267,198.819 179.421,182.267 178.524 C 180.902 178.450,179.578 178.550,178.593 178.800 M161.125 180.863 C 160.427 181.199,157.867 186.081,157.867 187.076 C 157.867 188.636,160.070 189.738,161.242 188.765 C 161.840 188.269,164.268 183.309,164.258 182.605 C 164.237 181.111,162.553 180.174,161.125 180.863 M201.815 181.344 C 199.805 183.354,201.324 184.803,205.430 184.792 C 209.095 184.781,210.344 183.956,209.610 182.027 C 208.929 180.235,203.407 179.752,201.815 181.344 M224.365 182.545 C 222.637 184.272,223.859 190.400,225.931 190.400 C 227.831 190.400,228.291 189.389,228.071 185.697 C 227.852 182.029,226.246 180.663,224.365 182.545 M201.721 189.988 C 200.463 191.246,200.891 197.169,202.279 197.701 C 204.456 198.537,205.333 197.337,205.333 193.525 C 205.333 189.501,203.755 187.954,201.721 189.988 M129.902 224.384 C 134.579 225.375,137.637 228.468,138.794 233.380 C 139.260 235.353,139.398 267.950,138.951 270.306 C 137.748 276.651,133.780 279.950,127.041 280.208 C 119.638 280.492,115.052 277.333,113.539 270.908 C 113.050 268.828,113.051 235.432,113.541 233.350 C 115.207 226.272,121.789 222.665,129.902 224.384 M160.533 224.245 C 165.397 225.048,168.573 227.910,170.065 232.835 C 170.619 234.664,170.902 265.529,170.400 269.311 C 169.472 276.295,165.506 279.906,158.433 280.207 C 150.978 280.525,146.560 277.519,144.926 271.019 C 144.169 268.005,144.473 234.003,145.276 231.867 C 147.536 225.858,153.190 223.033,160.533 224.245 M109.600 228.667 L 109.600 232.533 102.533 232.533 L 95.467 232.533 95.467 240.133 L 95.467 247.733 100.933 247.733 L 106.400 247.733 106.400 251.733 L 106.400 255.733 100.936 255.733 L 95.472 255.733 95.403 267.667 L 95.333 279.600 91.067 279.600 L 86.800 279.600 86.732 252.200 L 86.664 224.800 98.132 224.800 L 109.600 224.800 109.600 228.667 M193.966 225.325 C 197.757 226.294,200.165 228.519,201.564 232.344 L 202.267 234.267 202.267 252.000 C 202.267 271.619,202.304 271.146,200.506 274.306 C 198.059 278.608,195.533 279.443,184.333 279.651 L 176.533 279.796 176.533 252.298 L 176.533 224.800 184.224 224.800 C 190.999 224.800,192.159 224.862,193.966 225.325 M229.333 248.267 L 229.333 271.733 236.400 271.733 L 243.467 271.733 243.467 275.595 C 243.467 280.302,245.022 279.768,231.600 279.674 L 220.933 279.600 220.865 252.200 L 220.797 224.800 225.065 224.800 L 229.333 224.800 229.333 248.267 M256.267 252.128 L 256.267 279.457 255.667 279.605 C 255.337 279.687,253.447 279.719,251.467 279.677 L 247.867 279.600 247.799 252.200 L 247.731 224.800 251.999 224.800 L 256.267 224.800 256.267 252.128 M285.600 228.667 L 285.600 232.533 278.533 232.533 L 271.467 232.533 271.467 240.133 L 271.467 247.733 276.933 247.733 L 282.400 247.733 282.400 251.733 L 282.400 255.733 276.933 255.733 L 271.467 255.733 271.463 267.400 C 271.460 273.817,271.361 279.220,271.242 279.407 C 271.079 279.665,270.025 279.730,266.913 279.674 L 262.800 279.600 262.732 252.200 L 262.664 224.800 274.132 224.800 L 285.600 224.800 285.600 228.667 M313.067 228.667 L 313.067 232.533 305.729 232.533 L 298.391 232.533 298.462 239.800 L 298.533 247.067 304.333 247.139 L 310.133 247.210 310.133 251.072 L 310.133 254.933 304.267 254.933 L 298.400 254.933 298.400 263.333 L 298.400 271.733 305.740 271.733 L 313.081 271.733 313.007 275.667 L 312.933 279.600 301.333 279.600 L 289.733 279.600 289.665 252.200 L 289.597 224.800 301.332 224.800 L 313.067 224.800 313.067 228.667 M124.658 232.004 C 121.825 232.873,121.867 232.573,121.867 252.202 L 121.867 269.220 122.467 270.390 C 123.958 273.300,128.282 273.289,130.000 270.372 C 130.519 269.492,130.533 268.987,130.533 252.133 C 130.533 232.927,130.612 233.822,128.800 232.505 C 128.004 231.926,125.786 231.658,124.658 232.004 M155.822 232.011 C 154.756 232.338,153.697 233.583,153.333 234.936 C 152.745 237.119,153.109 269.312,153.733 270.372 C 155.487 273.349,159.794 273.300,161.309 270.287 L 161.951 269.010 161.933 252.106 C 161.916 235.267,161.913 235.198,161.330 233.994 C 160.455 232.186,158.061 231.324,155.822 232.011 M185.067 252.127 L 185.067 271.779 188.115 271.690 C 193.975 271.517,193.712 272.338,193.819 253.867 C 193.945 232.102,194.141 232.811,187.933 232.581 L 185.067 232.474 185.067 252.127 M140.511 294.621 C 143.879 296.658,145.233 305.098,142.756 308.621 C 139.535 313.204,133.292 310.141,133.976 304.314 C 134.356 301.079,136.174 299.319,138.931 299.518 C 140.749 299.650,140.746 299.659,139.688 297.406 C 138.675 295.250,136.896 294.415,135.078 295.243 C 134.161 295.661,133.876 295.301,134.670 294.727 C 136.414 293.467,138.539 293.429,140.511 294.621 M233.351 293.876 C 234.787 294.645,230.896 309.596,228.982 310.667 C 227.396 311.554,227.078 311.025,224.735 303.600 C 222.040 295.063,221.551 294.408,219.446 296.513 C 218.097 297.862,218.620 299.476,220.142 298.662 C 221.341 298.020,222.046 299.245,221.185 300.474 C 220.048 302.096,217.600 300.889,217.600 298.706 C 217.600 296.312,219.277 294.730,222.085 294.475 C 225.180 294.195,225.575 294.685,227.858 301.646 L 229.549 306.800 229.970 305.819 C 231.545 302.150,232.353 297.343,231.717 295.418 C 231.237 293.963,232.060 293.185,233.351 293.876 M247.406 294.574 C 250.311 296.246,251.818 302.325,250.447 306.838 C 248.463 313.370,240.086 311.292,240.892 304.467 C 241.287 301.117,243.081 299.317,245.826 299.515 L 247.395 299.629 247.138 298.681 C 246.352 295.777,244.033 294.183,242.101 295.217 C 241.260 295.667,240.871 295.363,241.544 294.781 C 243.023 293.500,245.396 293.417,247.406 294.574 M95.711 294.660 C 97.828 295.267,98.692 297.581,97.173 298.576 C 96.191 299.219,95.636 298.787,95.454 297.236 C 95.022 293.559,91.714 295.497,90.952 299.874 C 89.500 308.207,92.612 314.218,96.876 311.321 C 98.067 310.511,98.713 310.699,97.860 311.607 C 96.105 313.475,92.557 313.817,90.175 312.346 C 86.538 310.100,85.652 301.575,88.598 297.167 C 90.107 294.908,93.009 293.885,95.711 294.660 M168.244 294.660 C 170.135 295.203,171.078 297.151,169.981 298.248 C 169.144 299.085,168.464 298.651,168.133 297.067 C 167.777 295.361,166.350 294.819,165.482 296.059 C 164.480 297.489,165.225 299.273,168.114 302.362 C 172.204 306.735,172.488 310.331,168.910 312.428 C 165.301 314.543,159.939 312.467,160.932 309.339 C 161.440 307.738,162.704 308.159,163.272 310.118 C 164.189 313.286,167.729 312.602,167.732 309.256 C 167.734 307.832,166.999 306.553,164.778 304.116 C 161.507 300.525,160.876 298.181,162.604 296.035 C 163.789 294.564,166.016 294.021,168.244 294.660 M275.255 294.677 C 277.012 295.165,277.951 297.211,276.901 298.261 C 276.213 298.948,275.634 298.630,275.200 297.327 C 274.568 295.430,273.433 294.782,272.568 295.825 C 271.407 297.223,272.191 299.308,275.010 302.322 C 279.148 306.747,279.436 310.323,275.824 312.439 C 272.388 314.453,267.207 312.605,267.866 309.602 C 268.274 307.744,269.624 308.024,270.227 310.091 C 270.902 312.406,273.025 312.956,274.152 311.108 C 275.305 309.217,274.692 307.436,271.768 304.179 C 268.662 300.720,267.973 298.751,269.139 296.667 C 270.192 294.783,272.700 293.968,275.255 294.677 M131.348 296.016 C 132.359 297.133,130.929 298.787,129.417 298.248 C 127.982 297.736,127.885 295.995,129.266 295.532 C 130.168 295.230,130.762 295.368,131.348 296.016 M238.274 296.008 C 238.935 296.738,238.543 297.890,237.510 298.253 C 235.961 298.798,234.505 297.000,235.605 295.900 C 236.217 295.288,237.675 295.347,238.274 296.008 M106.182 300.214 C 107.669 301.134,108.341 302.813,108.226 305.329 C 107.883 312.888,98.379 312.577,98.406 305.009 C 98.419 301.186,100.877 298.881,104.301 299.480 C 104.833 299.574,105.680 299.904,106.182 300.214 M152.556 299.983 C 153.900 300.624,154.133 301.458,154.133 305.603 L 154.133 309.391 154.800 309.224 C 155.709 308.996,155.639 309.441,154.655 310.142 C 153.467 310.987,152.041 310.956,151.380 310.071 L 150.854 309.367 149.944 310.061 C 147.736 311.745,145.200 310.583,145.200 307.889 C 145.200 306.075,145.651 305.538,148.158 304.370 C 150.282 303.381,150.733 302.964,150.733 301.990 C 150.733 300.552,149.048 299.766,147.851 300.648 C 147.343 301.023,147.344 301.039,147.936 301.594 C 148.892 302.490,147.846 303.831,146.679 303.206 C 143.252 301.373,148.937 298.255,152.556 299.983 M203.539 300.118 C 204.613 300.822,204.800 301.641,204.800 305.644 L 204.800 309.396 205.477 309.266 C 206.316 309.106,206.221 309.511,205.248 310.237 C 204.178 311.036,202.736 310.950,202.014 310.044 L 201.432 309.315 200.940 309.859 C 199.725 311.202,197.322 311.071,196.333 309.609 C 194.949 307.560,195.850 305.722,198.916 304.343 C 201.565 303.152,202.423 301.402,200.787 300.526 C 199.393 299.781,197.600 300.654,198.600 301.592 C 199.362 302.306,199.354 302.553,198.551 303.079 C 197.253 303.930,196.006 302.312,196.904 300.941 C 197.976 299.304,201.609 298.853,203.539 300.118 M287.133 299.960 C 288.389 300.641,288.647 301.458,288.695 304.909 C 288.763 309.691,288.723 309.416,289.333 309.256 C 290.507 308.949,289.497 310.148,288.150 310.660 C 287.198 311.022,285.968 310.605,285.724 309.838 C 285.562 309.327,285.067 309.130,285.067 309.576 C 285.067 310.220,282.721 310.969,281.628 310.674 C 278.348 309.791,279.123 305.727,282.849 304.269 C 285.785 303.121,286.346 300.267,283.636 300.267 C 282.261 300.267,281.558 300.915,282.333 301.469 C 283.131 302.038,283.100 302.869,282.268 303.248 C 280.633 303.993,279.870 301.312,281.395 300.178 C 282.635 299.256,285.625 299.143,287.133 299.960 M113.630 300.461 L 114.061 301.322 114.563 300.767 C 115.943 299.242,118.254 298.990,119.247 300.256 L 119.867 301.045 121.040 300.256 C 124.364 298.020,125.600 299.451,125.600 305.535 L 125.600 309.391 126.333 309.207 L 127.067 309.023 126.427 309.704 C 125.239 310.969,123.192 311.166,122.493 310.083 C 122.368 309.891,122.207 307.815,122.133 305.470 C 121.986 300.774,121.865 300.495,120.449 301.609 L 119.733 302.172 119.733 306.147 C 119.733 310.642,119.473 311.211,117.609 310.802 C 116.397 310.536,116.267 310.018,116.267 305.476 C 116.267 300.839,116.147 300.546,114.676 301.593 L 113.867 302.170 113.863 306.085 C 113.860 308.238,113.770 310.132,113.663 310.292 C 113.354 310.753,112.103 310.959,111.352 310.674 L 110.667 310.413 110.667 306.307 C 110.667 301.122,110.561 300.534,109.633 300.532 L 108.933 300.530 109.733 299.993 C 111.057 299.105,113.074 299.347,113.630 300.461 M131.470 299.871 C 131.881 300.366,132.120 308.984,131.750 309.957 C 131.444 310.761,130.343 311.063,129.387 310.605 L 128.667 310.260 128.533 305.475 L 128.400 300.690 127.733 300.528 L 127.067 300.366 127.867 299.927 C 128.898 299.361,131.020 299.328,131.470 299.871 M180.294 300.076 C 181.556 300.924,181.858 302.006,181.839 305.600 C 181.818 309.655,181.782 309.418,182.400 309.256 C 183.574 308.949,182.564 310.148,181.217 310.660 C 180.266 311.022,179.119 310.633,178.760 309.828 C 178.523 309.298,178.516 309.299,177.790 309.870 C 175.389 311.758,172.756 310.710,172.756 307.867 C 172.756 306.247,173.387 305.457,175.432 304.519 C 177.968 303.354,177.974 303.350,178.258 302.554 C 178.842 300.914,176.759 299.559,175.333 300.651 C 174.804 301.057,174.805 301.064,175.431 301.555 C 176.480 302.377,175.660 303.733,174.363 303.322 C 173.820 303.149,173.506 302.267,173.645 301.303 C 173.897 299.547,178.299 298.734,180.294 300.076 M187.512 299.908 C 187.781 300.151,188.000 300.511,188.000 300.708 C 188.000 300.905,188.120 301.067,188.267 301.067 C 188.413 301.067,188.534 300.977,188.535 300.867 C 188.540 300.361,190.365 299.467,191.393 299.467 C 195.379 299.467,195.335 309.648,191.340 311.800 C 189.697 312.685,188.677 312.512,189.718 311.525 C 191.457 309.875,191.386 301.067,189.633 301.067 C 188.332 301.067,188.000 302.159,188.000 306.443 L 188.000 310.413 187.311 310.675 C 186.912 310.827,186.267 310.845,185.778 310.719 L 184.933 310.500 184.800 305.595 L 184.667 300.690 184.000 300.528 L 183.333 300.366 184.133 299.927 C 185.180 299.352,186.888 299.343,187.512 299.908 M238.434 299.907 C 238.895 300.463,239.122 308.827,238.705 309.909 C 238.349 310.834,237.051 311.159,236.129 310.555 C 235.486 310.133,235.478 310.080,235.406 305.410 L 235.333 300.690 234.667 300.528 L 234.000 300.366 234.800 299.927 C 235.871 299.339,237.953 299.328,238.434 299.907 M259.190 299.861 C 260.888 300.739,261.067 301.280,261.067 305.532 L 261.067 309.391 261.759 309.217 C 262.638 308.997,262.520 309.486,261.515 310.237 C 260.479 311.010,259.014 310.947,258.283 310.098 L 257.702 309.422 256.838 310.089 C 254.674 311.757,252.133 310.558,252.133 307.868 C 252.133 306.071,252.565 305.575,255.271 304.267 C 257.749 303.068,258.488 301.433,256.983 300.476 C 255.795 299.721,253.925 300.709,254.869 301.594 C 255.841 302.505,254.775 303.829,253.584 303.191 C 252.358 302.535,252.833 300.622,254.426 299.804 C 255.319 299.345,258.259 299.380,259.190 299.861 M294.446 299.908 C 294.714 300.151,294.933 300.511,294.933 300.708 C 294.933 301.236,295.162 301.155,296.174 300.267 C 297.166 299.396,298.924 299.171,299.759 299.808 C 302.105 301.599,301.644 308.902,299.040 311.187 C 297.516 312.526,295.295 312.899,296.596 311.598 C 298.396 309.798,298.371 301.067,296.566 301.067 C 295.265 301.067,294.933 302.159,294.933 306.443 L 294.933 310.413 294.200 310.692 C 293.750 310.864,293.157 310.883,292.667 310.743 L 291.867 310.514 291.733 305.602 L 291.600 300.690 290.933 300.528 L 290.267 300.366 291.067 299.927 C 292.114 299.352,293.821 299.343,294.446 299.908 M310.036 299.901 C 311.426 300.561,311.587 301.076,311.733 305.333 C 311.865 309.148,311.875 309.200,312.474 309.178 C 313.227 309.151,313.121 309.536,312.181 310.237 C 311.111 311.036,309.669 310.950,308.947 310.044 L 308.366 309.315 307.874 309.859 C 306.528 311.346,303.794 310.982,303.057 309.218 C 302.143 307.030,302.902 305.682,305.789 304.366 C 309.033 302.888,309.627 300.267,306.718 300.267 C 305.456 300.267,304.781 300.973,305.533 301.506 C 306.662 302.307,305.519 303.870,304.288 303.211 C 301.042 301.474,306.602 298.272,310.036 299.901 M102.424 300.904 C 100.889 302.754,101.712 309.748,103.442 309.547 C 105.558 309.300,105.558 300.833,103.442 300.587 C 103.064 300.542,102.606 300.685,102.424 300.904 M137.939 301.255 C 137.242 302.319,137.250 307.826,137.950 308.895 C 139.301 310.956,140.532 308.909,140.533 304.600 C 140.533 300.763,139.302 299.175,137.939 301.255 M245.107 300.885 C 244.173 302.010,244.053 307.628,244.934 308.972 C 245.619 310.016,246.528 309.801,247.062 308.467 C 248.520 304.822,246.937 298.680,245.107 300.885 M148.936 305.064 C 147.573 306.570,148.465 309.964,149.966 308.980 C 150.994 308.306,151.059 304.533,150.041 304.533 C 149.697 304.533,149.200 304.772,148.936 305.064 M176.717 304.864 C 175.622 305.665,175.724 309.063,176.850 309.279 C 177.851 309.472,178.430 308.378,178.345 306.455 C 178.260 304.524,177.799 304.073,176.717 304.864 M199.696 305.043 C 198.905 305.684,198.778 308.226,199.502 308.950 C 200.437 309.884,201.600 308.473,201.600 306.404 C 201.600 304.474,200.962 304.018,199.696 305.043 M255.869 305.064 C 254.506 306.570,255.398 309.964,256.899 308.980 C 257.928 308.306,257.992 304.533,256.975 304.533 C 256.631 304.533,256.133 304.772,255.869 305.064 M283.467 305.067 C 282.462 306.071,282.884 309.333,284.019 309.333 C 284.839 309.333,285.333 308.230,285.333 306.400 C 285.333 304.324,284.678 303.856,283.467 305.067 M306.407 305.383 C 305.126 307.485,306.338 310.219,307.872 308.686 C 308.917 307.640,308.775 304.710,307.673 304.583 C 307.092 304.516,306.838 304.677,306.407 305.383 M210.584 307.967 C 211.632 309.646,210.847 312.522,208.945 313.973 C 207.777 314.864,207.001 314.540,208.105 313.623 C 208.799 313.047,208.882 311.521,208.283 310.371 C 207.595 309.051,207.597 308.846,208.313 308.084 C 209.014 307.337,210.154 307.279,210.584 307.967 " stroke="none" fill="#6b734b" fill-rule="evenodd"></path></g></svg>